<svg width="30" height="30" viewBox="0 0 30 30" fill="none" xmlns="http://www.w3.org/2000/svg">
<g clip-path="url(#clip0_605_898)">
<path fill-rule="evenodd" clip-rule="evenodd" d="M20.6772 15.7453C20.4423 15.5114 20.0625 15.5123 19.8286 15.7471L14.8008 20.7962L9.77417 15.7471C9.54038 15.5123 9.16049 15.5115 8.92565 15.7453C8.69082 15.979 8.68997 16.3589 8.92377 16.5938L14.3755 22.0698C14.4881 22.1829 14.6411 22.2465 14.8007 22.2465C14.9603 22.2466 15.1133 22.183 15.2259 22.0699L20.6789 16.5938C20.9128 16.3591 20.912 15.9792 20.6772 15.7453Z" fill="#0F0000"/>
<path fill-rule="evenodd" clip-rule="evenodd" d="M14.7999 7.47056C14.4685 7.47057 14.1999 7.73922 14.1999 8.07061L14.2006 21.6459C14.2006 21.9773 14.4693 22.2459 14.8006 22.2459C15.132 22.2459 15.4006 21.9772 15.4006 21.6459L15.4 8.0705C15.3999 7.73917 15.1313 7.47055 14.7999 7.47056Z" fill="#0F0000"/>
</g>
<defs>
<clipPath id="clip0_605_898">
<rect width="20" height="20" fill="white" transform="matrix(0.707107 0.707107 0.707107 -0.707107 0.800781 15)"/>
</clipPath>
</defs>
</svg>
