<svg width="24" height="25" viewBox="0 0 24 25" fill="none" xmlns="http://www.w3.org/2000/svg">
<rect y="0.5" width="24" height="24" rx="6" fill="#55A2FF"/>
<path fill-rule="evenodd" clip-rule="evenodd" d="M11.878 8.53982C10.572 8.53982 9.51297 9.59851 9.51297 10.9048C9.51297 11.7424 10.0155 12.6067 10.621 13.2885C10.9185 13.6234 11.2271 13.8985 11.4822 14.0871C11.6101 14.1817 11.7192 14.2505 11.8022 14.2939C11.8375 14.3123 11.8624 14.3231 11.878 14.3292C11.8935 14.3231 11.9184 14.3123 11.9537 14.2939C12.0367 14.2505 12.1457 14.1817 12.2737 14.0871C12.5287 13.8985 12.8374 13.6234 13.1348 13.2885C13.7404 12.6067 14.2429 11.7424 14.2429 10.9048C14.2429 9.59851 13.1838 8.53982 11.878 8.53982ZM8.79297 10.9048C8.79297 9.20078 10.1745 7.81982 11.878 7.81982C13.5814 7.81982 14.9629 9.20078 14.9629 10.9048C14.9629 12.0057 14.321 13.0372 13.6732 13.7666C13.3439 14.1373 12.9985 14.4466 12.7018 14.6661C12.5538 14.7755 12.4124 14.8666 12.2869 14.9321C12.1786 14.9886 12.0272 15.0564 11.878 15.0564C11.7287 15.0564 11.5772 14.9886 11.469 14.9321C11.3434 14.8666 11.2021 14.7755 11.0541 14.6661C10.7574 14.4466 10.412 14.1373 10.0827 13.7666C9.43487 13.0372 8.79297 12.0057 8.79297 10.9048Z" fill="white"/>
<path fill-rule="evenodd" clip-rule="evenodd" d="M10.6094 10.8826C10.6094 10.1822 11.1773 9.61426 11.8777 9.61426C12.5781 9.61426 13.146 10.1822 13.146 10.8826C13.146 11.583 12.5781 12.1509 11.8777 12.1509C11.1773 12.1509 10.6094 11.583 10.6094 10.8826ZM11.8777 10.3343C11.575 10.3343 11.3294 10.5798 11.3294 10.8826C11.3294 11.1853 11.575 11.4309 11.8777 11.4309C12.1804 11.4309 12.426 11.1853 12.426 10.8826C12.426 10.5798 12.1804 10.3343 11.8777 10.3343Z" fill="white"/>
<path fill-rule="evenodd" clip-rule="evenodd" d="M9.09878 14.0394C9.19606 14.2128 9.13435 14.4322 8.96094 14.5295C8.51787 14.7781 8.38406 15.0199 8.38406 15.1869C8.38406 15.3538 8.51766 15.5952 8.96094 15.8439L8.96286 15.8449C9.11185 15.9297 9.281 16.0101 9.47132 16.0789L9.47421 16.0799C10.1026 16.3131 10.9453 16.4605 11.882 16.4605C12.8191 16.4605 13.6619 16.3132 14.2902 16.08L14.2929 16.079C14.4853 16.0093 14.6477 15.9335 14.7911 15.8483L14.7988 15.8439C15.2421 15.5952 15.3757 15.3538 15.3757 15.1869C15.3757 15.0199 15.2419 14.7781 14.7988 14.5295C14.6255 14.4322 14.5637 14.2128 14.661 14.0394C14.7583 13.866 14.9777 13.8043 15.1511 13.9015C15.6654 14.1901 16.0957 14.6198 16.0957 15.1869C16.0957 15.7527 15.6674 16.1812 15.155 16.4696C14.9682 16.5803 14.7652 16.6736 14.5394 16.7555C13.8165 17.0235 12.8869 17.1805 11.882 17.1805C10.8775 17.1805 9.94807 17.0236 9.22516 16.7555C8.99521 16.6723 8.78968 16.5747 8.60771 16.4712C8.09406 16.1828 7.66406 15.7538 7.66406 15.1869C7.66406 14.6198 8.0944 14.1901 8.60868 13.9015C8.78208 13.8043 9.00151 13.866 9.09878 14.0394Z" fill="white"/>
</svg>
