<svg width="36" height="25" viewBox="0 0 36 25" fill="none" xmlns="http://www.w3.org/2000/svg">
<g clip-path="url(#clip0_605_1053)">
<path d="M17.1898 13.5562V17.0241H16.082V8.46005H19.0201C19.3708 8.45277 19.7195 8.51454 20.0461 8.64179C20.3726 8.76904 20.6705 8.95925 20.9227 9.20145C21.1773 9.42894 21.38 9.70793 21.5171 10.0197C21.6542 10.3314 21.7225 10.6687 21.7174 11.0088C21.7247 11.3508 21.6574 11.6902 21.5203 12.004C21.3831 12.3177 21.1792 12.5983 20.9227 12.8264C20.4089 13.313 19.7747 13.556 19.0201 13.5555H17.1898V13.5562ZM17.1898 9.51441V12.5039H19.0476C19.2513 12.5099 19.454 12.4736 19.6428 12.3974C19.8315 12.3211 20.0021 12.2066 20.1438 12.0611C20.2846 11.9251 20.3966 11.7624 20.4731 11.5827C20.5496 11.4029 20.589 11.2098 20.589 11.0146C20.589 10.8195 20.5496 10.6263 20.4731 10.4466C20.3966 10.2668 20.2846 10.1041 20.1438 9.96813C20.0039 9.81958 19.8339 9.70225 19.6449 9.62391C19.4559 9.54557 19.2523 9.50801 19.0476 9.51372H17.1898V9.51441Z" fill="#5F6368"/>
<path d="M24.2686 10.9734C25.0874 10.9734 25.7337 11.1907 26.2076 11.6253C26.6814 12.0599 26.9181 12.6557 26.9177 13.4128V17.0242H25.858V16.211H25.8099C25.3511 16.8807 24.741 17.2155 23.9796 17.2155C23.3296 17.2155 22.7858 17.0242 22.3481 16.6415C22.1381 16.4659 21.9702 16.2459 21.8567 15.9977C21.7431 15.7494 21.6867 15.4791 21.6917 15.2065C21.6917 14.6002 21.9224 14.118 22.3839 13.76C22.8454 13.4019 23.4614 13.2224 24.2321 13.2215C24.8899 13.2215 25.4316 13.3411 25.8573 13.5802V13.3288C25.8586 13.1429 25.8182 12.9591 25.739 12.7907C25.6599 12.6223 25.544 12.4735 25.3998 12.3551C25.1068 12.0926 24.725 11.9494 24.3305 11.9539C23.7117 11.9539 23.222 12.2132 22.8614 12.7316L21.8857 12.1214C22.4224 11.356 23.2167 10.9734 24.2686 10.9734ZM22.8353 15.2304C22.8346 15.3705 22.8675 15.5086 22.9314 15.6334C22.9953 15.7582 23.0884 15.8661 23.2027 15.9479C23.4477 16.1393 23.7518 16.2407 24.0635 16.2349C24.531 16.2341 24.9791 16.0494 25.3096 15.7211C25.6766 15.378 25.8601 14.9756 25.8601 14.5137C25.5147 14.2403 25.033 14.1037 24.4151 14.1037C23.9651 14.1037 23.5899 14.2114 23.2894 14.4269C22.986 14.6455 22.8353 14.9113 22.8353 15.2304Z" fill="#5F6368"/>
<path d="M33 11.1647L29.3009 19.607H28.1573L29.53 16.6531L27.0977 11.1647H28.3018L30.0598 15.3739H30.0839L31.7938 11.1647H33Z" fill="#5F6368"/>
<path d="M12.7105 12.8087C12.7109 12.4735 12.6824 12.1388 12.6252 11.8083H7.95312V13.7032H10.6291C10.5743 14.0058 10.4584 14.2943 10.2884 14.5513C10.1183 14.8082 9.89762 15.0283 9.6396 15.1983V16.4283H11.2366C12.1717 15.5721 12.7105 14.3059 12.7105 12.8087Z" fill="#4285F4"/>
<path d="M7.95375 17.6166C9.29069 17.6166 10.4164 17.1806 11.2373 16.429L9.64023 15.199C9.19573 15.4983 8.62325 15.6691 7.95375 15.6691C6.66154 15.6691 5.56474 14.804 5.17254 13.6383H3.52734V14.9059C3.93969 15.7207 4.57197 16.4057 5.3536 16.8844C6.13523 17.363 7.03545 17.6165 7.95375 17.6166Z" fill="#34A853"/>
<path d="M5.17273 13.6383C4.96538 13.0275 4.96538 12.366 5.17273 11.7551V10.4875H3.52753C3.18065 11.173 3 11.9296 3 12.6967C3 13.4639 3.18065 14.2204 3.52753 14.9059L5.17273 13.6383Z" fill="#FBBC04"/>
<path d="M7.95375 9.72426C8.66026 9.7128 9.34294 9.97789 9.85422 10.4622L11.2682 9.05803C10.3716 8.2217 9.18377 7.76255 7.95375 7.77681C7.03545 7.77685 6.13523 8.03036 5.3536 8.50903C4.57197 8.9877 3.93969 9.67269 3.52734 10.4875L5.17254 11.7551C5.56474 10.5893 6.66154 9.72426 7.95375 9.72426Z" fill="#EA4335"/>
</g>
<defs>
<clipPath id="clip0_605_1053">
<rect width="36" height="24" fill="white" transform="translate(0 0.75)"/>
</clipPath>
</defs>
</svg>
