<svg width="24" height="25" viewBox="0 0 24 25" fill="none" xmlns="http://www.w3.org/2000/svg">
<rect y="0.5" width="24" height="24" rx="6" fill="#55A2FF"/>
<path fill-rule="evenodd" clip-rule="evenodd" d="M15.5427 15.6136C15.2972 15.613 15.0987 15.4136 15.0992 15.1682L15.1103 9.88991L9.83395 9.90165C9.58854 9.90219 9.38916 9.70365 9.38861 9.45818C9.38807 9.21272 9.58656 9.01329 9.83198 9.01274L15.5546 9C15.6728 8.99974 15.7862 9.04658 15.8698 9.13016C15.9534 9.21374 16.0002 9.32719 16 9.44539L15.9879 15.17C15.9874 15.4155 15.7881 15.614 15.5427 15.6136Z" fill="white"/>
<path fill-rule="evenodd" clip-rule="evenodd" d="M8.13013 16.8698C7.95661 16.6962 7.95662 16.4148 8.13016 16.2412L15.2396 9.13089C15.4131 8.95732 15.6945 8.95734 15.8681 9.13091C16.0415 9.3045 16.0415 9.58591 15.868 9.75947L8.75855 16.8699C8.58501 17.0434 8.30366 17.0434 8.13013 16.8698Z" fill="white"/>
</svg>
