<svg width="36" height="25" viewBox="0 0 36 25" fill="none" xmlns="http://www.w3.org/2000/svg">
<g clip-path="url(#clip0_605_1046)">
<path d="M0 3.75C0 2.09315 1.34315 0.75 3 0.75H33C34.6569 0.75 36 2.09315 36 3.75V21.75C36 23.4069 34.6569 24.75 33 24.75H3C1.34315 24.75 0 23.4069 0 21.75V3.75Z" fill="#FDEACE"/>
<path d="M21.7507 5.64548L14.0039 5.67212L14.2387 19.8545L21.9854 19.8279L21.7507 5.64548Z" fill="#FF5F00"/>
<path d="M14.5163 12.792C14.4683 9.90742 15.7605 7.34436 17.7845 5.68183C16.2568 4.483 14.3415 3.7621 12.2653 3.76921C7.34661 3.78605 3.4343 7.8381 3.51725 12.8297C3.6002 17.8213 7.64674 21.846 12.5654 21.8292C14.6416 21.8221 16.5327 21.0882 18.0205 19.879C15.9419 18.2556 14.5642 15.6766 14.5163 12.792Z" fill="#EB001B"/>
<path d="M32.4767 12.6705C32.5597 17.6621 28.6474 21.7142 23.7287 21.731C21.6525 21.7381 19.7372 21.0172 18.2094 19.8184C20.2581 18.1558 21.5256 15.5928 21.4777 12.7082C21.4298 9.82363 20.0525 7.26971 17.9735 5.62124C19.4612 4.41207 21.3523 3.67814 23.4286 3.67103C28.3472 3.65418 32.3942 7.70405 32.4767 12.6705Z" fill="#F79E1B"/>
</g>
<defs>
<clipPath id="clip0_605_1046">
<rect width="36" height="24" fill="white" transform="translate(0 0.75)"/>
</clipPath>
</defs>
</svg>
