<svg width="36" height="25" viewBox="0 0 36 25" fill="none" xmlns="http://www.w3.org/2000/svg">
<g clip-path="url(#clip0_605_1064)">
<path d="M29.9163 8.40417H24.1406C24.4771 10.3107 26.3275 12.1051 28.3462 12.1051H32.9444C33.0004 11.9369 33.0004 11.6565 33.0004 11.4883C33.0004 9.80604 31.5986 8.40417 29.9163 8.40417Z" fill="url(#paint0_linear_605_1064)"/>
<path d="M24.6445 12.4415V17.0957H27.4483V14.6284H29.9156C31.2613 14.6284 32.4389 13.6752 32.8314 12.4415H24.6445Z" fill="#4FAD50"/>
<path d="M14.7734 8.40417V17.0397H17.2407C17.2407 17.0397 17.8576 17.0397 18.194 16.4229C19.8762 13.1145 20.3809 12.1051 20.3809 12.1051H20.7174V17.0397H23.5211V8.40417H21.0538C21.0538 8.40417 20.437 8.46025 20.1005 9.021C18.6987 11.8808 17.9136 13.3388 17.9136 13.3388H17.5772V8.40417H14.7734Z" fill="#4FAD50"/>
<path d="M3 17.0957V8.46021H5.80374C5.80374 8.46021 6.58879 8.4602 7.03739 9.69385C8.15889 12.9462 8.27104 13.3948 8.27104 13.3948C8.27104 13.3948 8.49533 12.6097 9.50468 9.69385C9.95327 8.4602 10.7383 8.46021 10.7383 8.46021H13.5421V17.0957H10.7383V12.4415H10.4019L8.83179 17.0957H7.59814L6.02805 12.4415H5.6916V17.0957H3Z" fill="#4FAD50"/>
</g>
<defs>
<linearGradient id="paint0_linear_605_1064" x1="24.1306" y1="10.2812" x2="32.9806" y2="10.2812" gradientUnits="userSpaceOnUse">
<stop stop-color="#27B1E6"/>
<stop offset="1" stop-color="#148ACA"/>
</linearGradient>
<clipPath id="clip0_605_1064">
<rect width="36" height="24" fill="white" transform="translate(0 0.75)"/>
</clipPath>
</defs>
</svg>
