<svg width="13" height="14" viewBox="0 0 13 14" fill="none" xmlns="http://www.w3.org/2000/svg">
<path d="M6.51906 0.780029C6.9166 0.780029 7.23906 1.10242 7.23906 1.50003V6.54003H12.2791C12.6766 6.54003 12.9991 6.8624 12.9991 7.26003C12.9991 7.47757 12.9025 7.67254 12.7501 7.80444C12.6241 7.91379 12.4591 7.98003 12.2791 7.98003H7.23906V13.02C7.23906 13.4177 6.9166 13.74 6.51906 13.74C6.12153 13.74 5.79906 13.4177 5.79906 13.02V7.98003H0.759062C0.361565 7.98003 0.0390625 7.65766 0.0390625 7.26003C0.0390625 6.8624 0.361565 6.54003 0.759062 6.54003H5.79906V1.50003C5.79906 1.10242 6.12153 0.780029 6.51906 0.780029Z" fill="black" fill-opacity="0.85"/>
</svg>
