<svg width="26" height="26" viewBox="0 0 26 26" fill="none" xmlns="http://www.w3.org/2000/svg">
<path opacity="0.4" d="M13 26C20.1797 26 26 20.1797 26 13C26 5.8203 20.1797 0 13 0C5.8203 0 0 5.8203 0 13C0 20.1797 5.8203 26 13 26Z" fill="#8F8F8F"/>
<path d="M13 6C10.24 6 8 8.24299 8 11.0067C8 13.717 10.12 15.9199 12.9333 16C12.9733 16 13.0267 16 13.0533 16C13.08 16 13.12 16 13.1467 16C13.16 16 13.1733 16 13.1733 16C15.8667 15.9065 17.9867 13.717 18 11.0067C18 8.24299 15.76 6 13 6Z" fill="#8F8F8F"/>
<path d="M22 22.2705C19.6372 24.5786 16.4779 26 13 26C9.52212 26 6.36283 24.5786 4 22.2705C4.31858 20.9898 5.18142 19.8217 6.44248 18.921C10.0664 16.3597 15.9602 16.3597 19.5575 18.921C20.8319 19.8217 21.6814 20.9898 22 22.2705Z" fill="#8F8F8F"/>
</svg>
