<svg width="34" height="34" viewBox="0 0 34 34" fill="none" xmlns="http://www.w3.org/2000/svg">
<path fill-rule="evenodd" clip-rule="evenodd" d="M17 0C7.61175 0 0 7.61175 0 17C0 26.3882 7.61175 34 17 34C26.3882 34 34 26.3882 34 17C34 7.61175 26.3882 0 17 0ZM24.8795 11.5614C24.6245 14.2488 23.5167 20.7726 22.9542 23.783C22.7162 25.058 22.2459 25.4844 21.7926 25.5255C20.8052 25.6162 20.0557 24.8724 19.0995 24.2462C17.6035 23.2659 16.7577 22.6553 15.3057 21.6977C13.6269 20.5912 14.7149 19.9835 15.6712 18.9904C15.9219 18.7297 20.2711 14.773 20.3561 14.4146C20.366 14.3693 20.3773 14.2021 20.2767 14.1143C20.1762 14.0264 20.0302 14.0562 19.9254 14.0802C19.7752 14.1143 17.3853 15.6938 12.7542 18.819C12.0757 19.2851 11.4608 19.5117 10.9097 19.5004C10.3034 19.4877 9.13608 19.1576 8.26767 18.8742C7.20375 18.5286 6.35658 18.3444 6.43025 17.7579C6.4685 17.4519 6.88925 17.1388 7.69392 16.8187C12.6494 14.6597 15.9545 13.2359 17.6077 12.5474C22.3295 10.5839 23.3098 10.2425 23.9502 10.2312C24.752 10.2198 24.9447 10.8814 24.8795 11.5614Z" fill="#55A2FF"/>
</svg>
