<svg width="30" height="10" viewBox="0 0 30 10" fill="none" xmlns="http://www.w3.org/2000/svg">
<path d="M27.9809 0.276367H26.095C25.5248 0.276367 25.0862 0.451806 24.8231 1.02198L21.2266 9.22374H23.7704C23.7704 9.22374 24.209 8.12725 24.2967 7.86409C24.5599 7.86409 27.0599 7.86409 27.4108 7.86409C27.4985 8.1711 27.7178 9.17988 27.7178 9.17988H29.9985L27.9809 0.276367ZM24.9985 6.02198C25.2178 5.49567 25.9634 3.52198 25.9634 3.52198C25.9634 3.56584 26.1827 2.99567 26.2704 2.68865L26.4459 3.47812C26.4459 3.47812 26.9283 5.62724 27.016 6.06584H24.9985V6.02198Z" fill="#3362AB"/>
<path d="M21.4034 6.28513C21.4034 8.12723 19.7367 9.3553 17.149 9.3553C16.0525 9.3553 14.9999 9.136 14.4297 8.87285L14.7806 6.8553L15.0876 6.98688C15.8771 7.33776 16.4034 7.46934 17.3683 7.46934C18.07 7.46934 18.8157 7.20618 18.8157 6.59214C18.8157 6.19741 18.5086 5.93425 17.5437 5.49565C16.6227 5.05706 15.3946 4.3553 15.3946 3.08337C15.3946 1.32899 17.1051 0.144775 19.5174 0.144775C20.4385 0.144775 21.2279 0.320214 21.7104 0.539512L21.3595 2.46934L21.1841 2.2939C20.7455 2.11846 20.1753 1.94302 19.342 1.94302C18.4209 1.98688 17.9823 2.38162 17.9823 2.73249C17.9823 3.12723 18.5086 3.43425 19.342 3.82899C20.7455 4.48688 21.4034 5.23249 21.4034 6.28513Z" fill="#3362AB"/>
<path d="M0 0.364037L0.0438596 0.188599H3.81579C4.3421 0.188599 4.73684 0.364037 4.86842 0.934213L5.70175 4.88158C4.86842 2.77632 2.9386 1.06579 0 0.364037Z" fill="#F9B50B"/>
<path d="M11.0066 0.276282L7.19086 9.17979H4.60314L2.41016 1.72365C3.9891 2.73242 5.30489 4.31137 5.78735 5.40786L6.05051 6.32891L8.41893 0.232422H11.0066V0.276282Z" fill="#3362AB"/>
<path d="M12.0195 0.232422H14.4317L12.8967 9.17979H10.4844L12.0195 0.232422Z" fill="#3362AB"/>
</svg>
