<svg width="34" height="34" viewBox="0 0 34 34" fill="none" xmlns="http://www.w3.org/2000/svg">
<path d="M31.6119 2.38695C29.2264 0.00146484 25.3861 0.00146484 17.707 0.00146484H16.2904C8.61126 0.00146484 4.77097 0.00146484 2.38548 2.38695C0 4.77243 0 8.61272 0 16.2919V17.7084C0 25.3876 0 29.2265 2.38548 31.6134C4.77097 34.0003 8.61126 33.9989 16.2904 33.9989H17.707C25.3861 33.9989 29.225 33.9989 31.6119 31.6134C33.9974 29.2279 33.9974 25.3876 33.9974 17.7084V16.2919C33.9974 8.61272 33.9974 4.77243 31.6119 2.38695ZM27.6271 24.083H25.1482C24.2033 24.083 23.9257 23.3293 22.2442 21.6479C20.7724 20.2299 20.142 20.0458 19.7752 20.0458C19.2751 20.0458 19.1264 20.1874 19.1264 20.8957V23.1183C19.1264 23.7274 18.9323 24.083 17.3557 24.083C14.7294 24.083 11.8424 22.4879 9.79267 19.5471C6.71874 15.2394 5.87872 11.9827 5.87872 11.3268C5.87872 10.9585 6.02037 10.6257 6.72865 10.6257H9.20905C9.84225 10.6257 10.0802 10.9033 10.3182 11.5889C11.5308 15.1204 13.5763 18.2071 14.4163 18.2071C14.7308 18.2071 14.8753 18.0612 14.8753 17.2622V13.6118C14.7832 11.9317 13.8894 11.7929 13.8894 11.1951C13.8894 10.9189 14.1259 10.6257 14.5197 10.6257H18.4167C18.9422 10.6257 19.125 10.9061 19.125 11.5365V16.4477C19.125 16.9718 19.353 17.156 19.5103 17.156C19.8261 17.156 20.0882 16.9718 20.6662 16.3939C22.4524 14.3979 23.7132 11.3254 23.7132 11.3254C23.8718 10.9571 24.1608 10.6242 24.7926 10.6242H27.2716C28.0209 10.6242 28.1796 11.0095 28.0209 11.5351C27.705 12.98 24.6849 17.2339 24.6849 17.2339C24.4215 17.6546 24.3166 17.8643 24.6849 18.3374C24.9484 18.7057 25.8139 19.4409 26.3919 20.1237C27.4571 21.3221 28.2603 22.3321 28.4842 23.029C28.691 23.7288 28.3354 24.083 27.6271 24.083Z" fill="#55A2FF"/>
</svg>
